<?xml version="1.0" encoding="UTF-8" standalone="no"?>
<!DOCTYPE svg PUBLIC "-//W3C//DTD SVG 1.1//EN" "http://www.w3.org/Graphics/SVG/1.1/DTD/svg11.dtd">
<svg width="100%" height="100%" viewBox="0 0 500 500" version="1.1" xmlns="http://www.w3.org/2000/svg" xmlns:xlink="http://www.w3.org/1999/xlink" xml:space="preserve" xmlns:serif="http://www.serif.com/" style="fill-rule:evenodd;clip-rule:evenodd;stroke-linejoin:round;stroke-miterlimit:2;">
    <path d="M342.465,331.475C323.258,353.251 298.156,362.733 270.809,366.561C246.126,370.016 221.798,366.832 199.748,354.715C190.513,349.641 181.16,344.436 173.143,336.677C165.331,329.115 158.152,321.378 152.334,312.344C141.713,295.852 135.893,277.85 133.865,258.201C131.963,239.779 133.607,221.894 139.378,204.613C142.705,194.651 147.91,185.141 153.388,176.106C169.402,149.693 193.644,133.939 222.55,124.706C235.756,120.488 249.399,120.276 263.067,120.999C267.925,121.255 273.982,128.325 275.336,134.774C277.385,144.533 273.206,152.472 267.23,159.435C263.635,163.623 258.925,166.854 253.598,171.489C257.196,171.721 259.692,172.058 262.182,172.015C278.569,171.737 294.029,175.533 307.763,184.321C323.067,194.116 333.558,207.937 338.86,225.607C342.647,238.226 343.58,251.248 340.466,263.65C335.834,282.107 327.018,298.522 310.954,310.316C293.03,323.475 272.798,326.379 251.617,324.354C240.529,323.294 229.558,319.837 221.457,311.631C216.895,307.009 213.09,301.16 210.492,295.19C206.202,285.333 199.593,277.824 191.001,271.832C175.852,261.266 167.687,246.592 166.209,228.442C164.94,212.846 166.042,197.314 173.731,183.222C177.503,176.31 182.179,169.823 187.009,163.579C190.816,158.658 195.485,154.402 200.291,149.298C198.8,149.694 197.716,149.672 197.086,150.196C190.455,155.72 183.329,160.803 177.475,167.069C171.633,173.322 166.13,180.29 162.224,187.847C157.864,196.279 154.312,205.498 152.479,214.784C149.379,230.485 151.801,246.067 159.006,260.419C162.779,267.932 168.078,274.672 172.605,281.815C177.838,290.072 183.611,298.065 188.043,306.738C201.392,332.862 231.91,347.144 259.048,344.593C272.282,343.349 285.194,341.66 297.471,336.683C311.543,330.979 324.503,323.279 335.893,313.137C353.453,297.502 365.356,278.47 369.264,255.095C373.4,230.359 367.202,208.297 351.839,188.316C343.631,177.64 333.382,170.06 321.983,163.559C315.225,159.705 309.384,155.648 308.408,146.578C307.938,142.206 304.044,138.206 301.721,134.026C301.2,133.089 300.763,132.106 300.287,131.144C300.58,130.729 300.873,130.314 301.167,129.899C307.18,133.03 313.535,135.645 319.148,139.379C349.098,159.3 368.119,187 374.844,222.288C377.049,233.862 375.788,246.104 376.042,258.042C376.341,272.07 371.31,284.856 366.089,297.431C360.755,310.276 352.664,321.457 342.465,331.475M294.694,285.178C304.78,272.198 309.981,257.516 308.825,241.075C308.214,232.382 307.043,223.582 304.789,215.188C301.857,204.27 294.849,195.69 286.721,187.804C281.106,182.356 274.197,180.567 267.318,178.269C252.046,173.168 236.977,174.811 223.804,183.269C204.945,195.378 197.478,214.575 197.048,236.201C196.667,255.331 201.756,273.049 215.037,287.74C222.429,295.917 231.312,301.894 242.066,303.505C262.268,306.531 280.524,302.414 294.694,285.178M197.409,344.094C222.192,360.945 259.749,366.71 270.731,354.928C264.946,355.622 259.549,356.703 254.128,356.84C237.019,357.271 221.082,353.486 205.979,344.834C191.828,336.726 181.784,325.512 174.934,311.03C171.314,303.375 168.382,295.287 163.91,288.167C155.187,274.276 146.088,260.681 141.635,244.488C141.262,246.23 140.982,248.056 141.547,249.568C144.444,257.323 147.064,265.241 150.721,272.638C155.268,281.835 161.596,290.21 165.617,299.599C172.917,316.64 182.139,332.024 197.409,344.094M276.448,354.04C276.448,354.04 276.452,353.993 276.448,354.04Z" style="fill:rgb(15,19,21);fill-rule:nonzero;"/>
    <path d="M276.45,354.017C276.452,353.993 276.448,354.04 276.45,354.017Z" style="fill-rule:nonzero;"/>
</svg>
